<?xml version="1.0" standalone="no"?>
<!DOCTYPE svg PUBLIC "-//W3C//DTD SVG 20010904//EN"
 "http://www.w3.org/TR/2001/REC-SVG-20010904/DTD/svg10.dtd">
<svg version="1.0" xmlns="http://www.w3.org/2000/svg"
 width="700.000000pt" height="700.000000pt" viewBox="0 0 700.000000 700.000000"
 preserveAspectRatio="xMidYMid meet">
<metadata>
Created by potrace 1.11, written by Peter Selinger 2001-2013
</metadata>
<g transform="translate(0.000000,700.000000) scale(0.100000,-0.100000)"
fill="#000000" stroke="none">
<path d="M1697 6124 c-1 -1 -29 -4 -62 -8 -94 -9 -125 -16 -205 -43 -327 -111
-572 -371 -667 -708 l-28 -100 -2 -1370 c-2 -1447 -3 -1426 42 -1575 91 -298
343 -557 643 -661 120 -42 191 -51 405 -54 115 -2 210 -4 212 -6 2 -2 5 -137
7 -299 l3 -295 34 -69 c82 -168 242 -268 415 -260 117 5 208 45 311 139 47 43
56 50 205 179 63 55 120 104 125 110 6 6 42 38 80 71 39 33 86 74 105 91 19
18 113 100 208 183 l173 151 57 0 c31 1 396 1 810 2 414 1 782 5 818 10 412
56 746 356 857 772 l22 81 0 1395 0 1395 -23 89 c-35 139 -88 251 -173 365
-163 221 -389 357 -676 408 -24 4 -3691 11 -3696 7z"/>
</g>
</svg>
