<!-- https://thenounproject.com/search/?q=lyrics&i=3020237 -->
<svg fill="#fff" xmlns="http://www.w3.org/2000/svg" xmlns:xlink="http://www.w3.org/1999/xlink" viewBox="0 0 32 32" version="1.1" x="0px" y="0px"><title>sound/lyrics</title><desc>Created with Sketch.</desc><g stroke="none" stroke-width="1" fill="none" fill-rule="evenodd"><path d="M10,29 C13.3137085,29 16,26.3137085 16,23 C16,19.6862915 13.3137085,17 10,17 C6.6862915,17 4,19.6862915 4,23 C4,26.3137085 6.6862915,29 10,29 Z M10,27 C7.790861,27 6,25.209139 6,23 C6,20.790861 7.790861,19 10,19 C12.209139,19 14,20.790861 14,23 C14,25.209139 12.209139,27 10,27 Z" fill="#fff" fill-rule="nonzero"></path><path d="M16,22.5 L16,9 C16,8.44771525 15.5522847,8 15,8 C14.4477153,8 14,8.44771525 14,9 L14,22.5 C14,23.0522847 14.4477153,23.5 15,23.5 C15.5522847,23.5 16,23.0522847 16,22.5 Z" fill="#fff" fill-rule="nonzero"></path><path d="M17,5 L24,5 C25.6568542,5 27,6.34314575 27,8 L27,10 C27,11.6568542 25.6568542,13 24,13 L15,13 C14.4477153,13 14,12.5522847 14,12 L14,8 C14,6.34314575 15.3431458,5 17,5 Z M16,11 L24,11 C24.5522847,11 25,10.5522847 25,10 L25,8 C25,7.44771525 24.5522847,7 24,7 L17,7 C16.4477153,7 16,7.44771525 16,8 L16,11 Z" fill="#fff" fill-rule="nonzero"></path><path d="M24,16 L20,16 C19.4477153,16 19,16.4477153 19,17 C19,17.5522847 19.4477153,18 20,18 L24,18 C24.5522847,18 25,17.5522847 25,17 C25,16.4477153 24.5522847,16 24,16 Z" fill="#fff" fill-rule="nonzero"></path><path d="M22,21 L20,21 C19.4477153,21 19,21.4477153 19,22 C19,22.5522847 19.4477153,23 20,23 L22,23 C22.5522847,23 23,22.5522847 23,22 C23,21.4477153 22.5522847,21 22,21 Z" fill="#fff" fill-rule="nonzero"></path></g></svg>